<?xml version="1.0" encoding="utf-8"?>
<svg version="1.1" viewBox="0 0 1599 1000" width="1599" height="1004" xmlns="http://www.w3.org/2000/svg" xmlns:bx="https://boxy-svg.com">
  <defs>
    <bx:export>
      <bx:file format="svg" href="#object-0"/>
      <bx:file format="svg" href="#object-1" path="Untitled 2.svg"/>
      <bx:file format="svg" href="#object-2" path="Untitled 3.svg"/>
      <bx:file format="svg" href="#object-3" path="Untitled 4.svg"/>
      <bx:file format="svg" href="#object-4" path="Untitled 5.svg"/>
      <bx:file format="svg" href="#object-5" path="Untitled 6.svg"/>
      <bx:file format="svg" href="#object-6" path="Untitled 7.svg"/>
      <bx:file format="svg" href="#object-7" path="Untitled 8.svg"/>
      <bx:file format="svg" href="#object-8" path="Untitled 9.svg"/>
      <bx:file format="svg" href="#object-9" path="Untitled 10.svg"/>
      <bx:file format="svg" href="#object-10" path="Untitled 11.svg"/>
      <bx:file format="svg" href="#object-11" path="Untitled 12.svg"/>
      <bx:file format="svg" href="#object-12" path="Untitled 13.svg"/>
      <bx:file format="svg" href="#object-13" path="Untitled 14.svg"/>
      <bx:file format="svg" href="#object-14" path="Untitled 15.svg"/>
      <bx:file format="svg" href="#object-15" path="Untitled 16.svg"/>
      <bx:file format="svg" href="#object-16" path="Untitled 17.svg"/>
      <bx:file format="svg" href="#object-17" path="Untitled 18.svg"/>
      <bx:file format="svg" href="#object-18" path="Untitled 19.svg"/>
      <bx:file format="svg" href="#object-19" path="Untitled 20.svg"/>
      <bx:file format="svg" href="#object-20" path="Untitled 21.svg"/>
      <bx:file format="svg" href="#object-21" path="Untitled 22.svg"/>
      <bx:file format="svg" href="#object-22" path="Untitled 23.svg"/>
      <bx:file format="svg" href="#object-23" path="Untitled 24.svg"/>
      <bx:file format="svg" href="#object-24" path="Untitled 25.svg"/>
      <bx:file format="svg" href="#object-25" path="Untitled 26.svg"/>
      <bx:file format="svg" href="#object-0" path="Untitled 27.svg"/>
      <bx:file format="svg" href="#object-1" path="Untitled 28.svg"/>
      <bx:file format="svg" href="#object-2" path="Untitled 29.svg"/>
      <bx:file format="svg" href="#object-3" path="Untitled 30.svg"/>
      <bx:file format="svg" href="#object-4" path="Untitled 31.svg"/>
      <bx:file format="svg" href="#object-5" path="Untitled 32.svg"/>
      <bx:file format="svg" href="#object-6" path="Untitled 33.svg"/>
      <bx:file format="svg" href="#object-7" path="Untitled 34.svg"/>
      <bx:file format="svg" href="#object-8" path="Untitled 35.svg"/>
      <bx:file format="svg" href="#object-9" path="Untitled 36.svg"/>
      <bx:file format="svg" href="#object-10" path="Untitled 37.svg"/>
      <bx:file format="svg" href="#object-11" path="Untitled 38.svg"/>
      <bx:file format="svg" href="#object-12" path="Untitled 39.svg"/>
      <bx:file format="svg" href="#object-13" path="Untitled 40.svg"/>
      <bx:file format="svg" href="#object-14" path="Untitled 41.svg"/>
      <bx:file format="svg" href="#object-15" path="Untitled 42.svg"/>
      <bx:file format="svg" href="#object-16" path="Untitled 43.svg"/>
      <bx:file format="svg" href="#object-17" path="Untitled 44.svg"/>
      <bx:file format="svg" href="#object-18" path="Untitled 45.svg"/>
      <bx:file format="svg" href="#object-19" path="Untitled 46.svg"/>
      <bx:file format="svg" href="#object-20" path="Untitled 47.svg"/>
      <bx:file format="svg" href="#object-21" path="Untitled 48.svg"/>
      <bx:file format="svg" href="#object-22" path="Untitled 49.svg"/>
      <bx:file format="svg" href="#object-23" path="Untitled 50.svg"/>
      <bx:file format="svg" href="#object-24" path="Untitled 51.svg"/>
      <bx:file format="svg" href="#object-25" path="Untitled 52.svg"/>
      <bx:file format="svg" href="#object-0" path="Untitled 53.svg"/>
      <bx:file format="svg" href="#object-1" path="Untitled 54.svg"/>
      <bx:file format="svg" href="#object-2" path="Untitled 55.svg"/>
      <bx:file format="svg" href="#object-3" path="Untitled 56.svg"/>
      <bx:file format="svg" href="#object-4" path="Untitled 57.svg"/>
      <bx:file format="svg" href="#object-5" path="Untitled 58.svg"/>
      <bx:file format="svg" href="#object-6" path="Untitled 59.svg"/>
      <bx:file format="svg" href="#object-7" path="Untitled 60.svg"/>
      <bx:file format="svg" href="#object-8" path="Untitled 61.svg"/>
      <bx:file format="svg" href="#object-9" path="Untitled 62.svg"/>
      <bx:file format="svg" href="#object-10" path="Untitled 63.svg"/>
      <bx:file format="svg" href="#object-11" path="Untitled 64.svg"/>
      <bx:file format="svg" href="#object-12" path="Untitled 65.svg"/>
      <bx:file format="svg" href="#object-13" path="Untitled 66.svg"/>
      <bx:file format="svg" href="#object-14" path="Untitled 67.svg"/>
      <bx:file format="svg" href="#object-15" path="Untitled 68.svg"/>
      <bx:file format="svg" href="#object-16" path="Untitled 69.svg"/>
      <bx:file format="svg" href="#object-17" path="Untitled 70.svg"/>
      <bx:file format="svg" href="#object-18" path="Untitled 71.svg"/>
      <bx:file format="svg" href="#object-19" path="Untitled 72.svg"/>
      <bx:file format="svg" href="#object-20" path="Untitled 73.svg"/>
      <bx:file format="svg" href="#object-21" path="Untitled 74.svg"/>
      <bx:file format="svg" href="#object-22" path="Untitled 75.svg"/>
    </bx:export>
  </defs>
  <path transform="translate(246)" d="m0 0h1353v1e3h-904v-1l39-3 34-5 31-7 31-9 27-10 25-11 16-8 21-11 21-13 16-11 19-14 13-11 11-9 9-9 8-7 12-12 7-8 10-11 11-14 14-18 17-26 14-24 8-14 11 2 51 11 39 7 36 5 30 3 16 1h44l27-3 21-5 17-7 11-8 8-9 5-10 3-10 1-7v-11l-3-16-5-15-12-23-12-18-13-17-11-13-9-11-32-34v-2l8-7 6-9 5-13 3-19v-21l-2-14-5-16-6-10-8-7-10-5-9-2-129-1-19-14-17-12-2 2 5 2 15 12 12 9-4 2-3 1-1 2v33l5 3 55 1 10 9 8 7 10 9 8 7 7 7 8 7 3 4-110 1-3 1-1 2v125l1 3h33l3-1 1-2 1-88h57l6 9 12 22 26 46 8 13 2 1h37l2-2v-8l-10-18-14-24-15-26-8-14 9-2 10 11 11 14 12 16 12 19 10 19 6 16 3 14v20l-4 12-7 11-9 8-15 8-21 6-26 3h-32l-34-3-38-6-42-9-31-8-2-1 15-45 7-26 6-31 4-30 2-29v-37l-2-29-4-31-7-34-8-29-11-32-10-23-12-25-12-22-14-22-12-17-10-13-8-10-12-14-12-13-21-21-8-7-14-12-17-13-17-12-17-11-19-11-23-12-19-9-28-11-27-9-27-7-24-5-26-4-20-2-17-1h-43l-28 2-35 5-29 6-35 10-25 9-30 13-26 13-27 16-22 15-16 12-11 9-14 12-13 12-21 21-7 8-12 14-8 11-4-2-10-9-13-13-8-7-32-32-7-8-11-12-11-14-10-14-9-16-5-13-2-9v-16l4-13 6-10 8-7 10-6 17-6 14-3 16-2 19-1h12l34 2 39 5 42 8 38 9 49 14 30 10-1-3-50-17-50-15-46-12-43-9-37-6-27-3-15-1z" style="fill: none;" id="object-23"/>
  <path transform="translate(0)" d="m0 0h213v1l-26 3-19 5-16 7-12 9-7 9-5 11-2 10v14l3 15 5 15 11 23 12 19 13 18 13 16 12 14 22 24 28 28 8 7 15 14 5 4-1 5-8 13-12 22-13 27-12 31-9 28-8 32-5 28-4 35-1 19v35l2 30 4 30 5 26 6 24 9 29 11 29 13 28 10 19 15 25 13 19 14 19 11 13 9 11 8 8 7 8 14 14 8 7 10 9 14 11 17 13 27 18 24 14 19 10 27 12 24 9 21 7 30 8 31 6 31 4 30 2v1h-664z" style="fill: none;" id="object-24"/>
  <path transform="translate(213)" d="m0 0h33l34 3 28 4 32 6 40 9 41 11 49 15 44 15 1 4-11-3-39-12-45-12-42-9-36-6-37-4-22-1h-12l-28 2-17 3-16 5-12 6-10 8-6 10-4 13v16l4 15 8 16 10 16 13 16 12 14 7 7 7 8 31 31 8 7 14 14 8 7 13 12 11 9 13 11 14 11 13 11 14 11 15 12 17 13 16 13 13 10 14 11 15 12 4 3 4-2 9-8 14-7 12-3h28l27 4 31 5 21 3 15 4 23 11 24 14 12 6 21 6 40 9 16 5-1 3-13 6-52 17-4 1h-9l-13-5-23-13-21-11-15-6-15-4-30-4-42-5h-9l-10 4-5 4-6 9-4 11v10l4 10 14 17 14 18 10 13 9 11 10 10 17 12 28 16 18 10 8 7 4 11 13 52 1 6v10l-4-1-11-9v-2h-2v-2l-4-2-7-8-15-16-10-10-10-7-18-10-26-14-13-10-13-14-11-14-12-13-7-8-12-14-11-15-8-15-4-15v-19l4-17-19-13-36-26-16-12-19-14-18-14-14-11-20-16-11-9-13-11-11-9-16-15-8-7-16-15-28-28-7-8-11-12-9-11-13-16-14-20-12-20-9-19-5-15-3-15v-14l3-13 6-11 8-9 14-9 15-6 16-4z" style="fill: rgb(255, 255, 255);" id="object-25"/>
  <path d="M 1164.941 400.912 L 1171.941 404.912 L 1190.941 418.912 L 1201.941 426.912 L 1330.941 427.912 L 1341.941 430.912 L 1349.941 434.912 L 1359.941 443.912 L 1366.941 457.912 L 1370.941 473.912 L 1371.941 482.912 L 1371.941 503.912 L 1368.941 522.912 L 1363.941 535.912 L 1357.941 544.912 L 1350.941 551.912 L 1348.941 551.912 L 1355.941 559.912 L 1367.941 572.912 L 1374.941 579.912 L 1381.941 587.912 L 1394.941 602.912 L 1405.941 616.912 L 1417.941 632.912 L 1430.941 653.912 L 1440.941 674.912 L 1445.941 692.912 L 1446.941 700.912 L 1446.941 711.912 L 1443.941 725.912 L 1439.941 735.912 L 1432.941 744.912 L 1422.941 753.912 L 1406.941 761.912 L 1389.941 766.912 L 1373.941 769.912 L 1352.941 771.912 L 1308.941 771.912 L 1271.941 768.912 L 1233.941 763.912 L 1192.941 756.912 L 1145.941 746.912 L 1112.941 738.912 L 1081.941 730.912 L 1040.941 718.912 L 1004.941 706.912 L 990.941 701.912 L 992.941 697.912 L 998.941 687.912 L 1002.941 675.912 L 1004.941 666.912 L 1013.941 668.912 L 1049.941 680.912 L 1098.941 694.912 L 1162.941 711.912 L 1201.941 720.912 L 1234.941 726.912 L 1263.941 730.912 L 1288.941 732.912 L 1320.941 732.912 L 1346.941 729.912 L 1367.941 723.912 L 1382.941 715.912 L 1390.941 708.912 L 1397.941 697.912 L 1401.941 685.912 L 1401.941 665.912 L 1397.941 648.912 L 1389.941 629.912 L 1378.941 609.912 L 1367.941 593.912 L 1354.941 576.912 L 1343.941 563.912 L 1338.941 557.912 L 1331.941 558.912 L 1331.941 560.912 L 1347.941 588.912 L 1362.941 614.912 L 1376.941 638.912 L 1377.941 640.912 L 1377.941 648.912 L 1374.941 651.912 L 1337.941 651.912 L 1332.941 646.912 L 1320.941 625.912 L 1306.941 600.912 L 1293.941 577.912 L 1283.941 560.912 L 1226.941 559.912 L 1226.941 647.912 L 1224.941 650.912 L 1221.941 651.912 L 1191.941 651.912 L 1188.941 650.912 L 1186.941 647.912 L 1186.941 522.912 L 1188.941 519.912 L 1191.941 518.912 L 1300.941 517.912 L 1292.941 509.912 L 1284.941 502.912 L 1277.941 495.912 L 1269.941 488.912 L 1259.941 479.912 L 1248.941 470.912 L 1247.941 469.912 L 1192.941 468.912 L 1187.941 465.912 L 1186.941 464.912 L 1186.941 431.912 L 1188.941 428.912 L 1194.941 426.912 L 1177.941 413.912 L 1163.941 403.912 L 1164.941 400.912 Z" style="fill: rgb(255, 255, 255);" id="object-0"/>
  <path d="M 292.941 427.912 L 386.941 427.912 L 403.941 431.912 L 414.941 437.912 L 424.941 446.912 L 432.941 460.912 L 436.941 473.912 L 439.941 496.912 L 439.941 582.912 L 436.941 605.912 L 431.941 620.912 L 425.941 631.912 L 416.941 640.912 L 400.941 648.912 L 385.941 651.912 L 292.941 651.912 L 278.941 648.912 L 268.941 644.912 L 258.941 637.912 L 249.941 625.912 L 243.941 610.912 L 240.941 596.912 L 239.941 587.912 L 239.941 491.912 L 242.941 472.912 L 247.941 457.912 L 253.941 447.912 L 261.941 439.912 L 268.941 434.912 L 281.941 429.912 L 292.941 427.912 Z" style="fill: rgb(255, 255, 255);" id="object-1"/>
  <path d="M 21.941 427.912 L 160.941 427.912 L 172.941 430.912 L 181.941 435.912 L 186.941 440.912 L 192.941 447.912 L 197.941 458.912 L 201.941 476.912 L 202.941 495.912 L 200.941 516.912 L 195.941 533.912 L 188.941 544.912 L 180.941 551.912 L 170.941 556.912 L 161.941 559.912 L 177.941 587.912 L 191.941 611.912 L 206.941 637.912 L 208.941 640.912 L 208.941 647.912 L 204.941 651.912 L 167.941 651.912 L 163.941 647.912 L 149.941 622.912 L 136.941 599.912 L 122.941 574.912 L 114.941 560.912 L 57.941 559.912 L 57.941 646.912 L 52.941 651.912 L 21.941 651.912 L 17.941 648.912 L 16.941 645.912 L 16.941 433.912 L 19.941 428.912 L 21.941 427.912 Z" style="fill: rgb(255, 255, 255);" id="object-2"/>
  <path d="M 298.941 468.912 L 380.941 468.912 L 390.941 472.912 L 395.941 479.912 L 398.941 493.912 L 398.941 585.912 L 396.941 596.912 L 392.941 604.912 L 387.941 608.912 L 380.941 610.912 L 298.941 610.912 L 289.941 607.912 L 283.941 599.912 L 280.941 587.912 L 280.941 491.912 L 283.941 479.912 L 289.941 471.912 L 298.941 468.912 Z" fill="#068BEC" id="object-3"/>
  <path transform="translate(1395,424)" d="m0 0h37l5 5 13 24 13 23 18 34 13 23 2 2 13-24 13-23 15-28 13-23 5-9 4-4h37l3 4-1 6-14 25-14 24-12 22-12 21-13 23-16 28-1 1-1 66-3 3-3 1h-28l-5-3-2-5-1-63-28-50-13-23-15-27-13-23-11-19-1-8z" style="fill: rgb(255, 255, 255);" id="object-4"/>
  <path d="M 964.941 427.912 L 1150.941 427.912 L 1155.941 432.912 L 1155.941 462.912 L 1151.941 467.912 L 1148.941 468.912 L 1078.941 468.912 L 1078.941 644.912 L 1075.941 650.912 L 1072.941 651.912 L 1042.941 651.912 L 1037.941 647.912 L 1037.941 468.912 L 966.941 468.912 L 961.941 465.912 L 959.941 461.912 L 959.941 433.912 L 962.941 428.912 L 964.941 427.912 Z" style="fill: rgb(255, 255, 255);" id="object-5"/>
  <path d="M 817.941 440.912 L 822.941 441.912 L 846.941 454.912 L 865.941 465.912 L 865.941 467.912 L 836.941 478.912 L 711.941 524.912 L 708.941 524.912 L 735.941 658.912 L 741.941 688.912 L 741.941 690.912 L 735.941 688.912 L 712.941 675.912 L 694.941 665.912 L 691.941 653.912 L 661.941 503.912 L 661.941 498.912 L 681.941 490.912 L 736.941 470.912 L 782.941 453.912 L 817.941 440.912 Z" style="fill: rgb(255, 255, 255);" id="object-6"/>
  <path d="M 800.941 525.912 L 806.941 529.912 L 819.941 540.912 L 830.941 549.912 L 844.941 561.912 L 855.941 570.912 L 864.941 577.912 L 864.941 579.912 L 868.941 581.912 L 876.941 587.912 L 876.941 589.912 L 880.941 591.912 L 888.941 597.912 L 888.941 599.912 L 892.941 601.912 L 900.941 607.912 L 900.941 609.912 L 904.941 611.912 L 914.941 619.912 L 914.941 621.912 L 918.941 623.912 L 926.941 629.912 L 926.941 631.912 L 930.941 633.912 L 938.941 639.912 L 938.941 641.912 L 942.941 643.912 L 955.941 654.912 L 962.941 659.912 L 962.941 661.912 L 966.941 663.912 L 979.941 674.912 L 985.941 679.912 L 982.941 680.912 L 942.941 667.912 L 929.941 662.912 L 919.941 659.912 L 895.941 651.912 L 857.941 638.912 L 770.941 609.912 L 758.941 604.912 L 756.941 599.912 L 747.941 554.912 L 746.941 545.912 L 786.941 530.912 L 800.941 525.912 Z" fill="#FDAC1B" id="object-7"/>
  <path d="M 767.941 652.912 L 784.941 657.912 L 821.941 669.912 L 848.941 678.912 L 888.941 691.912 L 908.941 698.912 L 925.941 703.912 L 926.941 705.912 L 924.941 706.912 L 805.941 705.912 L 777.941 704.912 L 770.941 670.912 L 767.941 655.912 L 767.941 652.912 Z" fill="#FDD50F" id="object-8"/>
  <path d="M 894.941 491.912 L 899.941 492.912 L 911.941 512.912 L 921.941 527.912 L 935.941 550.912 L 944.941 564.912 L 955.941 581.912 L 966.941 599.912 L 976.941 615.912 L 974.941 616.912 L 963.941 607.912 L 960.941 605.912 L 960.941 603.912 L 956.941 601.912 L 946.941 593.912 L 946.941 591.912 L 942.941 589.912 L 932.941 581.912 L 932.941 579.912 L 928.941 577.912 L 900.941 553.912 L 892.941 547.912 L 892.941 545.912 L 888.941 543.912 L 860.941 519.912 L 852.941 513.912 L 852.941 511.912 L 848.941 509.912 L 850.941 507.912 L 894.941 491.912 Z" fill="#FDD50F" id="object-9"/>
  <path d="M 865.941 579.912 L 873.941 585.912 L 876.941 587.912 L 876.941 589.912 L 880.941 591.912 L 888.941 597.912 L 888.941 599.912 L 892.941 601.912 L 900.941 607.912 L 900.941 609.912 L 904.941 611.912 L 914.941 619.912 L 914.941 621.912 L 918.941 623.912 L 926.941 629.912 L 926.941 631.912 L 930.941 633.912 L 938.941 639.912 L 938.941 641.912 L 942.941 643.912 L 955.941 654.912 L 962.941 659.912 L 962.941 661.912 L 966.941 663.912 L 979.941 674.912 L 985.941 679.912 L 982.941 680.912 L 942.941 667.912 L 929.941 662.912 L 919.941 659.912 L 895.941 651.912 L 857.941 638.912 L 842.941 633.912 L 842.941 631.912 L 852.941 626.912 L 857.941 621.912 L 865.941 615.912 L 871.941 598.912 L 873.941 597.912 L 872.941 593.912 L 872.941 586.912 L 868.941 585.912 L 865.941 582.912 L 865.941 579.912 Z" fill="#FD9623" id="object-10"/>
  <path d="M 786.941 530.912 L 790.941 534.912 L 794.941 539.912 L 800.941 544.912 L 805.941 553.912 L 808.941 559.912 L 810.941 570.912 L 807.941 580.912 L 801.941 585.912 L 796.941 587.912 L 790.941 588.912 L 775.941 588.912 L 764.941 586.912 L 758.941 586.912 L 753.941 583.912 L 748.941 559.912 L 746.941 550.912 L 746.941 545.912 L 786.941 530.912 Z" fill="#FDD50E" id="object-11"/>
  <path d="M 1254.941 468.912 L 1318.941 468.912 L 1324.941 471.912 L 1328.941 476.912 L 1330.941 484.912 L 1330.941 501.912 L 1327.941 511.912 L 1320.941 517.912 L 1311.941 518.912 L 1304.941 511.912 L 1296.941 504.912 L 1282.941 492.912 L 1267.941 479.912 L 1254.941 469.912 L 1254.941 468.912 Z" style="fill: rgb(6, 139, 236);" id="object-12"/>
  <path d="M 600.941 449.912 L 614.941 449.912 L 622.941 453.912 L 626.941 458.912 L 628.941 463.912 L 628.941 472.912 L 624.941 481.912 L 616.941 488.912 L 610.941 490.912 L 601.941 489.912 L 593.941 484.912 L 589.941 479.912 L 587.941 474.912 L 587.941 464.912 L 591.941 456.912 L 598.941 450.912 L 600.941 449.912 Z" style="fill: rgb(255, 255, 255);" id="object-13"/>
  <path d="M 842.941 677.912 L 852.941 679.912 L 890.941 692.912 L 908.941 698.912 L 925.941 703.912 L 926.941 705.912 L 924.941 706.912 L 805.941 705.912 L 805.941 704.912 L 832.941 703.912 L 839.941 702.912 L 844.941 695.912 L 845.941 690.912 L 844.941 681.912 L 842.941 677.912 Z" fill="#FDAC1C" id="object-14"/>
  <path d="M 928.941 540.912 L 932.941 545.912 L 943.941 562.912 L 973.941 610.912 L 976.941 616.912 L 971.941 614.912 L 962.941 606.912 L 960.941 605.912 L 960.941 603.912 L 956.941 601.912 L 946.941 593.912 L 946.941 591.912 L 942.941 589.912 L 932.941 581.912 L 932.941 579.912 L 928.941 577.912 L 914.941 565.912 L 906.941 558.912 L 909.941 557.912 L 913.941 558.912 L 921.941 554.912 L 923.941 554.912 L 926.941 545.912 L 928.941 540.912 Z" fill="#FDAD1B" id="object-15"/>
  <path d="M 769.941 659.912 L 771.941 660.912 L 771.941 663.912 L 778.941 663.912 L 789.941 667.912 L 794.941 668.912 L 797.941 672.912 L 804.941 674.912 L 807.941 681.912 L 806.941 688.912 L 798.941 694.912 L 786.941 696.912 L 780.941 696.912 L 777.941 694.912 L 776.941 697.912 L 773.941 685.912 L 769.941 665.912 L 769.941 659.912 Z" fill="#FDE807" id="object-16"/>
  <path d="M 886.941 494.912 L 889.941 494.912 L 897.941 508.912 L 898.941 509.912 L 899.941 524.912 L 890.941 528.912 L 884.941 527.912 L 876.941 523.912 L 876.941 521.912 L 872.941 520.912 L 867.941 517.912 L 867.941 515.912 L 864.941 514.912 L 862.941 510.912 L 859.941 509.912 L 858.941 505.912 L 867.941 501.912 L 886.941 494.912 Z" fill="#FDE807" id="object-17"/>
  <path d="M 767.941 537.912 L 772.941 537.912 L 770.941 538.912 L 775.941 543.912 L 781.941 555.912 L 780.941 561.912 L 775.941 567.912 L 769.941 568.912 L 757.941 566.912 L 750.941 566.912 L 746.941 550.912 L 746.941 545.912 L 767.941 537.912 Z" fill="#FDE807" id="object-18"/>
  <path d="M 946.941 572.912 L 950.941 573.912 L 961.941 591.912 L 973.941 610.912 L 976.941 616.912 L 971.941 614.912 L 962.941 606.912 L 960.941 605.912 L 960.941 603.912 L 956.941 601.912 L 946.941 593.912 L 946.941 591.912 L 942.941 589.912 L 934.941 582.912 L 935.941 580.912 L 941.941 578.912 L 943.941 574.912 L 946.941 574.912 L 946.941 572.912 Z" fill="#FE9622" id="object-19"/>
  <path d="M 874.941 687.912 L 884.941 690.912 L 908.941 698.912 L 925.941 703.912 L 926.941 705.912 L 924.941 706.912 L 878.941 705.912 L 873.941 704.912 L 875.941 693.912 L 874.941 687.912 Z" fill="#FE9622" id="object-20"/>
  <path d="M 998.941 153.912 L 1002.941 155.912 L 1009.941 160.912 L 1009.941 162.912 L 1013.941 164.912 L 1024.941 174.912 L 1028.941 177.912 L 1028.941 179.912 L 1030.941 179.912 L 1037.941 187.912 L 1040.941 189.912 L 1040.941 191.912 L 1044.941 193.912 L 1051.941 201.912 L 1057.941 208.912 L 1056.941 210.912 L 1040.941 193.912 L 1020.941 173.912 L 1012.941 166.912 L 998.941 154.912 L 998.941 153.912 Z" fill="#DFFCFF" id="object-21"/>
  <path d="M 865.941 579.912 L 873.941 585.912 L 876.941 587.912 L 875.941 589.912 L 872.941 588.912 L 872.941 586.912 L 868.941 585.912 L 865.941 582.912 L 865.941 579.912 Z" fill="#FE9C20" id="object-22"/>
  <path d="M 75.779 454.092 L 132.339 454.092 L 139.236 456.016 L 142.685 459.383 L 144.754 466.117 L 144.754 510.367 L 143.375 515.657 L 140.616 519.505 L 137.167 521.429 L 132.339 522.391 L 75.779 522.391 L 69.571 520.949 L 65.432 517.101 L 63.363 511.329 L 63.363 465.154 L 65.432 459.383 L 69.571 455.535 L 75.779 454.092 Z" fill="#068BEC" id="path-1" style=""/>
</svg>